# Made using Asset Forge (www.assetforge.io) version 1.2.1 

mtllib rock1.model.mtl 

v 0.5 0 1.5
v 0.5 0 0.5
v -2.5 0 1.5
v -2.5 0 0.5
v -2.5 1 0.5
v -2.5 1 1.5
v 0.5 1 0.5
v 0.5 1 1.5
vn 0 -1 0
vn -3 0 0
vn 0 0 -1
vn 0 0 1
vn 3 0 0
vn 0 1 0
vt -0.5 -1.5
vt -0.5 -0.5
vt 2.5 -1.5
vt 2.5 -0.5
vt 0.5 0
vt 0.5 1
vt 1.5 0
vt 1.5 1
vt 2.5 0
vt -0.5 0
vt 2.5 1
vt -0.5 1
vt -2.5 0
vt -2.5 1
vt -1.5 1
vt -1.5 0
vt -0.5 0.5
vt -0.5 1.5
vt 2.5 0.5
vt 2.5 1.5

usemtl customMaterial1 (Instance)
usemap customMaterial1 (Instance)
f 3/3/1 2/2/1 1/1/1
f 2/2/1 3/3/1 4/4/1
f 3/7/2 5/6/2 4/5/2
f 5/6/2 3/7/2 6/8/2
f 5/11/3 2/10/3 4/9/3
f 2/10/3 5/11/3 7/12/3
f 8/6/4 3/13/4 1/5/4
f 3/13/4 8/6/4 6/14/4
f 8/15/5 2/10/5 7/12/5
f 2/10/5 8/15/5 1/16/5
f 5/19/6 8/18/6 7/17/6
f 8/18/6 5/19/6 6/20/6
v 0.2 0 0.5
v 0.2 0 -0.5
v -0.8 0 0.5
v -0.8 0 -0.5
v -0.8 1.1 -0.5
v -0.8 1.1 0.5
v 0.2 1.1 -0.5
v 0.2 1.1 0.5
vn 0 -1.1 0
vn -1 0 0
vn 1 0 0
vn 0 1.1 0
vt -0.2 -0.5
vt -0.2 0.5
vt 0.8 -0.5
vt 0.8 0.5
vt -0.5 1.1
vt 0.5 1.1
vt 0.8 0
vt -0.2 0
vt 0.8 1.1
vt -0.2 1.1
vt 0.2 0
vt -0.8 0
vt 0.2 1.1
vt -0.8 1.1

usemtl customMaterial1 (Instance)
usemap customMaterial1 (Instance)
f 11/23/7 10/22/7 9/21/7
f 10/22/7 11/23/7 12/24/7
f 11/5/8 13/25/8 12/10/8
f 13/25/8 11/5/8 14/26/8
f 13/29/3 10/28/3 12/27/3
f 10/28/3 13/29/3 15/30/3
f 16/33/4 11/32/4 9/31/4
f 11/32/4 16/33/4 14/34/4
f 16/25/9 10/5/9 15/26/9
f 10/5/9 16/25/9 9/10/9
f 13/23/10 16/22/10 15/21/10
f 16/22/10 13/23/10 14/24/10
v -0.4999999 0 0.3
v -0.4999999 0 -0.7
v -1.7 0 0.3
v -1.7 0 -0.7
v -1.7 1 -0.7
v -1.7 1 0.3
v -0.4999999 1 -0.7
v -0.4999999 1 0.3
vn -1.2 0 0
vn 1.2 0 0
vt 0.4999999 -0.3
vt 0.4999999 0.7
vt 1.7 -0.3
vt 1.7 0.7
vt -0.7 0
vt -0.7 1
vt 0.3 0
vt 0.3 1
vt 1.7 0
vt 0.4999999 0
vt 1.7 1
vt 0.4999999 1
vt -0.4999999 0
vt -1.7 0
vt -0.4999999 1
vt -1.7 1
vt 0.7 1
vt 0.7 0
vt -0.3 1
vt -0.3 0
vt 0.4999999 -0.7
vt 0.4999999 0.3
vt 1.7 -0.7
vt 1.7 0.3

usemtl customMaterial1 (Instance)
usemap customMaterial1 (Instance)
f 19/37/1 18/36/1 17/35/1
f 18/36/1 19/37/1 20/38/1
f 19/41/11 21/40/11 20/39/11
f 21/40/11 19/41/11 22/42/11
f 21/45/3 18/44/3 20/43/3
f 18/44/3 21/45/3 23/46/3
f 24/49/4 19/48/4 17/47/4
f 19/48/4 24/49/4 22/50/4
f 24/53/12 18/52/12 23/51/12
f 18/52/12 24/53/12 17/54/12
f 21/57/6 24/56/6 23/55/6
f 24/56/6 21/57/6 22/58/6
v -0.5 0.5 1.1
v -0.5 0.5 0.1
v -1.5 0.5 1.1
v -1.5 0.5 0.1
v -1.5 1.5 0.1
v -1.5 1.5 1.1
v -0.5 1.5 0.1
v -0.5 1.5 1.1
vt 0.5 -1.1
vt 0.5 -0.1
vt 1.5 -1.1
vt 1.5 -0.1
vt 0.1 0.5
vt 0.1 1.5
vt 1.1 0.5
vt 1.1 1.5
vt 1.5 0.5
vt 0.5 0.5
vt 1.5 1.5
vt 0.5 1.5
vt -1.5 0.5
vt -1.5 1.5
vt -0.1 1.5
vt -0.1 0.5
vt -1.1 1.5
vt -1.1 0.5
vt 0.5 0.1
vt 1.5 0.1
vt 1.5 1.1

usemtl customMaterial1 (Instance)
usemap customMaterial1 (Instance)
f 27/61/1 26/60/1 25/59/1
f 26/60/1 27/61/1 28/62/1
f 27/65/8 29/64/8 28/63/8
f 29/64/8 27/65/8 30/66/8
f 29/69/3 26/68/3 28/67/3
f 26/68/3 29/69/3 31/70/3
f 32/18/4 27/71/4 25/17/4
f 27/71/4 32/18/4 30/72/4
f 32/75/9 26/74/9 31/73/9
f 26/74/9 32/75/9 25/76/9
f 29/78/6 32/26/6 31/77/6
f 32/26/6 29/78/6 30/79/6
v -1.5 0 0.8
v -1.5 0 -0.2
v -2.5 0 0.8
v -2.5 0 -0.2
v -2.5 1.1 -0.2
v -2.5 1.1 0.8
v -1.5 1.1 -0.2
v -1.5 1.1 0.8
vt 1.5 -0.8
vt 1.5 0.2
vt 2.5 -0.8
vt 2.5 0.2
vt 2.5 1.1
vt -1.5 1.1
vt -2.5 1.1
vt 1.5 -0.2
vt 1.5 0.8
vt 2.5 -0.2
vt 2.5 0.8

usemtl customMaterial1 (Instance)
usemap customMaterial1 (Instance)
f 35/82/7 34/81/7 33/80/7
f 34/81/7 35/82/7 36/83/7
f 35/27/8 37/30/8 36/28/8
f 37/30/8 35/27/8 38/29/8
f 37/84/3 34/7/3 36/9/3
f 34/7/3 37/84/3 39/79/3
f 40/85/4 35/13/4 33/16/4
f 35/13/4 40/85/4 38/86/4
f 40/34/9 34/31/9 39/33/9
f 34/31/9 40/34/9 33/32/9
f 37/89/10 40/88/10 39/87/10
f 40/88/10 37/89/10 38/90/10
v 0.2 -2.235174E-08 2.3
v 0.2 -2.235174E-08 1.3
v -0.8 -2.235174E-08 2.3
v -0.8 -2.235174E-08 1.3
v -0.8 1.4 1.3
v -0.8 1.4 2.3
v 0.2 1.4 1.3
v 0.2 1.4 2.3
vn 0 -1.4 0
vn 0 1.4 0
vt -0.2 -2.3
vt -0.2 -1.3
vt 0.8 -2.3
vt 0.8 -1.3
vt 1.3 -2.235174E-08
vt 1.3 1.4
vt 2.3 -2.235174E-08
vt 2.3 1.4
vt 0.8 -2.235174E-08
vt -0.2 -2.235174E-08
vt 0.8 1.4
vt -0.2 1.4
vt 0.2 -2.235174E-08
vt -0.8 -2.235174E-08
vt 0.2 1.4
vt -0.8 1.4
vt -1.3 1.4
vt -1.3 -2.235174E-08
vt -2.3 1.4
vt -2.3 -2.235174E-08
vt -0.2 1.3
vt -0.2 2.3
vt 0.8 1.3
vt 0.8 2.3

usemtl customMaterial1 (Instance)
usemap customMaterial1 (Instance)
f 43/93/13 42/92/13 41/91/13
f 42/92/13 43/93/13 44/94/13
f 43/97/8 45/96/8 44/95/8
f 45/96/8 43/97/8 46/98/8
f 45/101/3 42/100/3 44/99/3
f 42/100/3 45/101/3 47/102/3
f 48/105/4 43/104/4 41/103/4
f 43/104/4 48/105/4 46/106/4
f 48/109/9 42/108/9 47/107/9
f 42/108/9 48/109/9 41/110/9
f 45/113/14 48/112/14 47/111/14
f 48/112/14 45/113/14 46/114/14
v -1.5 0 2.2
v -1.5 0 1.2
v -2.5 0 2.2
v -2.5 0 1.2
v -2.5 1.2 1.2
v -2.5 1.2 2.2
v -1.5 1.2 1.2
v -1.5 1.2 2.2
vn 0 -1.2 0
vn 0 1.2 0
vt 1.5 -2.2
vt 1.5 -1.2
vt 2.5 -2.2
vt 2.5 -1.2
vt 1.2 0
vt 1.2 1.2
vt 2.2 0
vt 2.2 1.2
vt 2.5 1.2
vt 1.5 1.2
vt -1.5 1.2
vt -2.5 1.2
vt -1.2 1.2
vt -1.2 0
vt -2.2 1.2
vt -2.2 0
vt 1.5 2.2
vt 2.5 2.2

usemtl customMaterial1 (Instance)
usemap customMaterial1 (Instance)
f 51/117/15 50/116/15 49/115/15
f 50/116/15 51/117/15 52/118/15
f 51/121/8 53/120/8 52/119/8
f 53/120/8 51/121/8 54/122/8
f 53/123/3 50/7/3 52/9/3
f 50/7/3 53/123/3 55/124/3
f 56/125/4 51/13/4 49/16/4
f 51/13/4 56/125/4 54/126/4
f 56/129/9 50/128/9 55/127/9
f 50/128/9 56/129/9 49/130/9
f 53/123/16 56/131/16 55/124/16
f 56/131/16 53/123/16 54/132/16
v -0.5 0 2.5
v -0.5 0 1.5
v -1.5 0 2.5
v -1.5 0 1.5
v -1.5 1.1 1.5
v -1.5 1.1 2.5
v -0.5 1.1 1.5
v -0.5 1.1 2.5
vt 0.5 -2.5
vt 0.5 -1.5
vt 1.5 -2.5
vt 1.5 -1.5
vt 0.5 2.5
vt 1.5 2.5

usemtl customMaterial1 (Instance)
usemap customMaterial1 (Instance)
f 59/135/7 58/134/7 57/133/7
f 58/134/7 59/135/7 60/136/7
f 59/9/8 61/79/8 60/7/8
f 61/79/8 59/9/8 62/84/8
f 61/79/3 58/5/3 60/7/3
f 58/5/3 61/79/3 63/26/3
f 64/25/4 59/16/4 57/10/4
f 59/16/4 64/25/4 62/85/4
f 64/86/9 58/16/9 63/85/9
f 58/16/9 64/86/9 57/13/9
f 61/69/10 64/137/10 63/70/10
f 64/137/10 61/69/10 62/138/10
v -2.4 0 1.5
v -2.4 0 0.5
v -3.4 0 1.5
v -3.4 0 0.5
v -3.4 0.7 0.5
v -3.4 0.7 1.5
v -2.4 0.7 0.5
v -2.4 0.7 1.5
vn 0 -0.7 0
vn 0 0.7 0
vt 2.4 -1.5
vt 2.4 -0.5
vt 3.4 -1.5
vt 3.4 -0.5
vt 0.5 0.7
vt 1.5 0.7
vt 3.4 0
vt 2.4 0
vt 3.4 0.7
vt 2.4 0.7
vt -2.4 0
vt -3.4 0
vt -2.4 0.7
vt -3.4 0.7
vt -0.5 0.7
vt -1.5 0.7
vt 2.4 0.5
vt 2.4 1.5
vt 3.4 0.5
vt 3.4 1.5

usemtl customMaterial1 (Instance)
usemap customMaterial1 (Instance)
f 67/141/17 66/140/17 65/139/17
f 66/140/17 67/141/17 68/142/17
f 67/7/8 69/143/8 68/5/8
f 69/143/8 67/7/8 70/144/8
f 69/147/3 66/146/3 68/145/3
f 66/146/3 69/147/3 71/148/3
f 72/151/4 67/150/4 65/149/4
f 67/150/4 72/151/4 70/152/4
f 72/154/9 66/10/9 71/153/9
f 66/10/9 72/154/9 65/16/9
f 69/157/18 72/156/18 71/155/18
f 72/156/18 69/157/18 70/158/18
v -1.5 0 -0.1
v -1.5 0 -1.1
v -2.5 0 -0.1
v -2.5 0 -1.1
v -2.5 0.7 -1.1
v -2.5 0.7 -0.1
v -1.5 0.7 -1.1
v -1.5 0.7 -0.1
vt 2.5 0.1
vt -1.1 0
vt -1.1 0.7
vt -0.1 0
vt -0.1 0.7
vt 2.5 0.7
vt -2.5 0.7
vt 1.1 0.7
vt 1.1 0
vt 0.1 0.7
vt 0.1 0
vt 2.5 -1.1
vt 2.5 -0.1

usemtl customMaterial1 (Instance)
usemap customMaterial1 (Instance)
f 75/159/17 74/79/17 73/78/17
f 74/79/17 75/159/17 76/84/17
f 75/162/8 77/161/8 76/160/8
f 77/161/8 75/162/8 78/163/8
f 77/164/3 74/7/3 76/9/3
f 74/7/3 77/164/3 79/144/3
f 80/154/4 75/13/4 73/16/4
f 75/13/4 80/154/4 78/165/4
f 80/168/9 74/167/9 79/166/9
f 74/167/9 80/168/9 73/169/9
f 77/170/18 80/62/18 79/61/18
f 80/62/18 77/170/18 78/171/18
v -2.1 0 0.5
v -2.1 0 -0.5
v -3.1 0 0.5
v -3.1 0 -0.5
v -3.1 0.4 -0.5
v -3.1 0.4 0.5
v -2.1 0.4 -0.5
v -2.1 0.4 0.5
vn 0 -0.4 0
vn 0 0.4 0
vt 2.1 -0.5
vt 2.1 0.5
vt 3.1 -0.5
vt 3.1 0.5
vt -0.5 0.4
vt 0.5 0.4
vt 3.1 0
vt 2.1 0
vt 3.1 0.4
vt 2.1 0.4
vt -2.1 0
vt -3.1 0
vt -2.1 0.4
vt -3.1 0.4

usemtl customMaterial1 (Instance)
usemap customMaterial1 (Instance)
f 83/174/19 82/173/19 81/172/19
f 82/173/19 83/174/19 84/175/19
f 83/5/8 85/176/8 84/10/8
f 85/176/8 83/5/8 86/177/8
f 85/180/3 82/179/3 84/178/3
f 82/179/3 85/180/3 87/181/3
f 88/184/4 83/183/4 81/182/4
f 83/183/4 88/184/4 86/185/4
f 88/176/9 82/5/9 87/177/9
f 82/5/9 88/176/9 81/10/9
f 85/174/20 88/173/20 87/172/20
f 88/173/20 85/174/20 86/175/20
v -2.2 0 2.5
v -2.2 0 1.5
v -3.2 0 2.5
v -3.2 0 1.5
v -3.2 0.5 1.5
v -3.2 0.5 2.5
v -2.2 0.5 1.5
v -2.2 0.5 2.5
vn 0 -0.5 0
vn 0 0.5 0
vt 2.2 -2.5
vt 2.2 -1.5
vt 3.2 -2.5
vt 3.2 -1.5
vt 3.2 0
vt 3.2 0.5
vt 2.2 0.5
vt -3.2 0
vt -2.2 0.5
vt -3.2 0.5
vt -2.5 0.5
vt 2.2 1.5
vt 2.2 2.5
vt 3.2 1.5
vt 3.2 2.5

usemtl customMaterial1 (Instance)
usemap customMaterial1 (Instance)
f 91/188/21 90/187/21 89/186/21
f 90/187/21 91/188/21 92/189/21
f 91/9/8 93/67/8 92/7/8
f 93/67/8 91/9/8 94/19/8
f 93/191/3 90/121/3 92/190/3
f 90/121/3 93/191/3 95/192/3
f 96/194/4 91/193/4 89/130/4
f 91/193/4 96/194/4 94/195/4
f 96/196/9 90/16/9 95/71/9
f 90/16/9 96/196/9 89/13/9
f 93/199/22 96/198/22 95/197/22
f 96/198/22 93/199/22 94/200/22
v -1.5 0 3.1
v -1.5 0 2.1
v -2.5 0 3.1
v -2.5 0 2.1
v -2.5 0.7 2.1
v -2.5 0.7 3.1
v -1.5 0.7 2.1
v -1.5 0.7 3.1
vt 1.5 -3.1
vt 1.5 -2.1
vt 2.5 -3.1
vt 2.5 -2.1
vt 2.1 0.7
vt 3.1 0.7
vt -2.1 0.7
vt -3.1 0.7
vt 1.5 2.1
vt 1.5 3.1
vt 2.5 2.1
vt 2.5 3.1

usemtl customMaterial1 (Instance)
usemap customMaterial1 (Instance)
f 99/203/17 98/202/17 97/201/17
f 98/202/17 99/203/17 100/204/17
f 99/178/8 101/205/8 100/179/8
f 101/205/8 99/178/8 102/206/8
f 101/164/3 98/7/3 100/9/3
f 98/7/3 101/164/3 103/144/3
f 104/154/4 99/13/4 97/16/4
f 99/13/4 104/154/4 102/165/4
f 104/208/9 98/182/9 103/207/9
f 98/182/9 104/208/9 97/183/9
f 101/211/18 104/210/18 103/209/18
f 104/210/18 101/211/18 102/212/18
v 0.5 0 3
v 0.5 0 2
v -0.5 0 3
v -0.5 0 2
v -0.5 0.8 2
v -0.5 0.8 3
v 0.5 0.8 2
v 0.5 0.8 3
vn 0 -0.8 0
vn 0 0.8 0
vt -0.5 -3
vt -0.5 -2
vt 0.5 -3
vt 0.5 -2
vt 2 0
vt 2 0.8
vt 3 0
vt 3 0.8
vt 0.5 0.8
vt -0.5 0.8
vt -2 0.8
vt -2 0
vt -3 0.8
vt -3 0
vt -0.5 2
vt -0.5 3
vt 0.5 2
vt 0.5 3

usemtl customMaterial1 (Instance)
usemap customMaterial1 (Instance)
f 107/215/23 106/214/23 105/213/23
f 106/214/23 107/215/23 108/216/23
f 107/219/8 109/218/8 108/217/8
f 109/218/8 107/219/8 110/220/8
f 109/221/3 106/10/3 108/5/3
f 106/10/3 109/221/3 111/222/3
f 112/221/4 107/10/4 105/5/4
f 107/10/4 112/221/4 110/222/4
f 112/225/9 106/224/9 111/223/9
f 106/224/9 112/225/9 105/226/9
f 109/229/24 112/228/24 111/227/24
f 112/228/24 109/229/24 110/230/24
v -0.5 0 3.5
v -1.5 0 3.5
v -1.5 0.5 2.5
v -1.5 0.5 3.5
v -0.5 0.5 2.5
v -0.5 0.5 3.5
vt 0.5 -3.5
vt 1.5 -3.5
vt 3.5 0
vt 3.5 0.5
vt -3.5 0.5
vt -3.5 0
vt 0.5 3.5
vt 1.5 3.5

usemtl customMaterial1 (Instance)
usemap customMaterial1 (Instance)
f 114/232/21 57/133/21 113/231/21
f 57/133/21 114/232/21 59/135/21
f 114/233/8 115/19/8 59/9/8
f 115/19/8 114/233/8 116/234/8
f 115/67/3 57/5/3 59/7/3
f 57/5/3 115/67/3 117/68/3
f 118/17/4 114/16/4 113/10/4
f 114/16/4 118/17/4 116/71/4
f 118/235/9 57/13/9 117/196/9
f 57/13/9 118/235/9 113/236/9
f 115/138/22 118/237/22 117/137/22
f 118/237/22 115/138/22 116/238/22
v 1.2 0 2.1
v 1.2 0 1.1
v 0.2 0 2.1
v 0.2 0 1.1
v 0.2 0.5 1.1
v 0.2 0.5 2.1
v 1.2 0.5 1.1
v 1.2 0.5 2.1
vt -1.2 -2.1
vt -1.2 -1.1
vt -0.2 -2.1
vt -0.2 -1.1
vt -1.2 0.5
vt 1.2 0.5
vt 0.2 0.5
vt -2.1 0.5
vt -1.2 1.1
vt -1.2 2.1
vt -0.2 2.1

usemtl customMaterial1 (Instance)
usemap customMaterial1 (Instance)
f 121/241/21 120/240/21 119/239/21
f 120/240/21 121/241/21 122/242/21
f 121/179/8 123/65/8 122/167/8
f 123/65/8 121/179/8 124/173/8
f 123/22/3 120/128/3 122/28/3
f 120/128/3 123/22/3 125/243/3
f 126/244/4 121/31/4 119/119/4
f 121/31/4 126/244/4 124/245/4
f 126/246/9 120/160/9 125/76/9
f 120/160/9 126/246/9 119/182/9
f 123/30/22 126/248/22 125/247/22
f 126/248/22 123/30/22 124/249/22
v 0.9 0 0.9
v 0.9 0 -0.09999999
v -0.1 0 0.9
v -0.1 0 -0.09999999
v -0.1 0.5 -0.09999999
v -0.1 0.5 0.9
v 0.9 0.5 -0.09999999
v 0.9 0.5 0.9
vt -0.9 -0.9
vt -0.9 0.09999999
vt 0.1 -0.9
vt 0.1 0.09999999
vt -0.09999999 0
vt -0.09999999 0.5
vt 0.9 0
vt 0.9 0.5
vt -0.9 0
vt -0.9 0.5
vt 0.09999999 0.5
vt 0.09999999 0
vt -0.9 -0.09999999
vt -0.9 0.9
vt 0.1 -0.09999999
vt 0.1 0.9

usemtl customMaterial1 (Instance)
usemap customMaterial1 (Instance)
f 129/252/21 128/251/21 127/250/21
f 128/251/21 129/252/21 130/253/21
f 129/256/8 131/255/8 130/254/8
f 131/255/8 129/256/8 132/257/8
f 131/63/3 128/258/3 130/169/3
f 128/258/3 131/63/3 133/259/3
f 134/257/4 129/162/4 127/256/4
f 129/162/4 134/257/4 132/74/4
f 134/259/9 128/261/9 133/260/9
f 128/261/9 134/259/9 127/258/9
f 131/264/22 134/263/22 133/262/22
f 134/263/22 131/264/22 132/265/22
v 0.5 0 0.2
v 0.5 0 -0.8
v -0.5 0 0.2
v -0.5 0 -0.8
v -0.5 0.6 -0.8
v -0.5 0.6 0.2
v 0.5 0.6 -0.8
v 0.5 0.6 0.2
vn 0 -0.6 0
vn 0 0.6 0
vt -0.5 -0.2
vt 0.5 -0.2
vt -0.8 0.6
vt 0.2 0.6
vt 0.5 0.6
vt -0.5 0.6
vt 0.8 0.6
vt -0.2 0.6
vt -0.5 -0.8
vt -0.5 0.2
vt 0.5 -0.8
vt 0.5 0.2

usemtl customMaterial1 (Instance)
usemap customMaterial1 (Instance)
f 137/267/25 136/222/25 135/266/25
f 136/222/25 137/267/25 138/221/25
f 137/31/8 139/268/8 138/32/8
f 139/268/8 137/31/8 140/269/8
f 139/270/3 136/10/3 138/5/3
f 136/10/3 139/270/3 141/271/3
f 142/270/4 137/10/4 135/5/4
f 137/10/4 142/270/4 140/271/4
f 142/273/9 136/27/9 141/272/9
f 136/27/9 142/273/9 135/28/9
f 139/276/26 142/275/26 141/274/26
f 142/275/26 139/276/26 140/277/26
v -0.5 0 -0.5
v -0.5 0 -1.5
v -1.5 0 -0.5
v -1.5 0 -1.5
v -1.5 0.3 -1.5
v -1.5 0.3 -0.5
v -0.5 0.3 -1.5
v -0.5 0.3 -0.5
vn 0 -0.3 0
vn 0 0.3 0
vt -1.5 0.3
vt -0.5 0.3
vt 1.5 0.3
vt 0.5 0.3
vt 0.5 -0.5
vt 1.5 -0.5

usemtl customMaterial1 (Instance)
usemap customMaterial1 (Instance)
f 145/67/27 144/70/27 143/68/27
f 144/70/27 145/67/27 146/69/27
f 145/10/8 147/278/8 146/16/8
f 147/278/8 145/10/8 148/279/8
f 147/280/3 144/5/3 146/7/3
f 144/5/3 147/280/3 149/281/3
f 150/279/4 145/16/4 143/10/4
f 145/16/4 150/279/4 148/278/4
f 150/281/9 144/7/9 149/280/9
f 144/7/9 150/281/9 143/5/9
f 147/136/28 150/282/28 149/134/28
f 150/282/28 147/136/28 148/283/28
v 1.5 0 1.5
v 1.5 0 0.5
v 0.5 0.1 0.5
v 0.5 0.1 1.5
v 1.5 0.1 0.5
v 1.5 0.1 1.5
vn 0 -0.1 0
vn 0 0.1 0
vt -1.5 -1.5
vt -1.5 -0.5
vt -0.5 0.1
vt -1.5 0.1

usemtl customMaterial1 (Instance)
usemap customMaterial1 (Instance)
f 1/1/29 152/285/29 151/284/29
f 152/285/29 1/1/29 2/2/29
f 1/7/8 153/77/8 2/5/8
f 153/77/8 1/7/8 154/78/8
f 153/286/3 152/16/3 2/10/3
f 152/16/3 153/286/3 155/287/3
f 156/78/4 1/5/4 151/7/4
f 1/5/4 156/78/4 154/77/4
f 156/287/9 152/10/9 155/286/9
f 152/10/9 156/287/9 151/16/9
f 153/17/30 156/72/30 155/71/30
f 156/72/30 153/17/30 154/18/30
